<?xml version="1.0" encoding="UTF-8"?>
<svg id="_Слой_2" data-name="Слой 2" xmlns="http://www.w3.org/2000/svg" viewBox="0 0 85.72 30.54">
  <defs>
    <style>
      .cls-1 {
        fill: #fff;
      }
    </style>
  </defs>
  <g id="_Слой_1-2" data-name="Слой 1">
    <g>
      <path class="cls-1" d="M0,.45h4.49v25.76H0V.45Z"/>
      <path class="cls-1" d="M15.96,24.86c-1.99-1.2-3.57-2.82-4.73-4.86-1.16-2.04-1.74-4.26-1.74-6.65s.58-4.61,1.74-6.65,2.73-3.67,4.73-4.88,4.19-1.81,6.58-1.81,4.63.6,6.63,1.81,3.58,2.83,4.73,4.88c1.15,2.04,1.72,4.26,1.72,6.65s-.57,4.61-1.72,6.65c-1.15,2.04-2.72,3.66-4.73,4.86s-4.22,1.79-6.63,1.79-4.59-.6-6.58-1.79ZM26.95,21.21c1.32-.81,2.35-1.91,3.08-3.31.73-1.4,1.1-2.92,1.1-4.56s-.37-3.16-1.1-4.56c-.74-1.4-1.76-2.5-3.08-3.33-1.32-.82-2.79-1.23-4.41-1.23s-3.08.41-4.37,1.23c-1.3.82-2.32,1.93-3.07,3.33-.75,1.4-1.12,2.92-1.12,4.56s.37,3.17,1.12,4.56c.75,1.4,1.77,2.5,3.07,3.31,1.29.81,2.75,1.21,4.37,1.21s3.09-.4,4.41-1.21ZM21.53,18.24l3.29-1.98,7.55,12.3-3.25,1.98-7.59-12.3Z"/>
      <path class="cls-1" d="M45.42,24.86c-1.99-1.2-3.57-2.82-4.73-4.86-1.16-2.04-1.74-4.26-1.74-6.65s.58-4.61,1.74-6.65c1.16-2.04,2.74-3.67,4.73-4.88,1.99-1.21,4.19-1.81,6.58-1.81s4.63.6,6.64,1.81c2.01,1.21,3.58,2.83,4.73,4.86,1.15,2.03,1.72,4.26,1.72,6.67s-.57,4.61-1.72,6.65c-1.15,2.04-2.72,3.66-4.73,4.86-2.01,1.2-4.22,1.79-6.64,1.79s-4.59-.6-6.58-1.79ZM56.41,21.21c1.32-.81,2.35-1.91,3.08-3.31.74-1.4,1.1-2.92,1.1-4.56s-.37-3.16-1.1-4.56c-.74-1.4-1.76-2.5-3.08-3.33s-2.8-1.23-4.45-1.23-3.04.41-4.34,1.23-2.32,1.93-3.07,3.33c-.75,1.4-1.12,2.92-1.12,4.56s.37,3.17,1.12,4.56c.75,1.4,1.77,2.5,3.07,3.31,1.3.81,2.74,1.21,4.34,1.21s3.13-.4,4.45-1.21Z"/>
      <path class="cls-1" d="M66.43.45h19.29v4.04h-19.29V.45ZM73.83,3.63h4.49v22.58h-4.49V3.63Z"/>
    </g>
  </g>
</svg>